<svg width="213" height="184" viewBox="0 0 213 184" fill="none" xmlns="http://www.w3.org/2000/svg">
<g filter="url(#filter0_d_4_4)">
<path d="M4 34C4 15.2223 19.2223 0 38 0H154C172.778 0 188 15.2223 188 34V131C188 149.778 172.778 165 154 165H38C19.2223 165 4 149.778 4 131V34Z" fill="white"/>
<path d="M45 173C45 173 20 160.769 20 159.85C20 158.93 36 158.92 36 158.92L45 173Z" fill="white"/>
<path d="M191 15C191 15 167 1 167 3C167 5 170 19.1092 170 19.1092L191 15Z" fill="white"/>
<rect x="25" y="11" width="184" height="165" rx="34" fill="url(#paint0_linear_4_4)"/>
<g filter="url(#filter1_d_4_4)">
<path d="M74 65C74 62.7909 75.7909 61 78 61H156C158.209 61 160 62.7909 160 65V74C160 76.2091 158.209 78 156 78H78C75.7909 78 74 76.2091 74 74V65Z" fill="white"/>
</g>
</g>
<defs>
<filter id="filter0_d_4_4" x="0" y="0" width="213" height="184" filterUnits="userSpaceOnUse" color-interpolation-filters="sRGB">
<feFlood flood-opacity="0" result="BackgroundImageFix"/>
<feColorMatrix in="SourceAlpha" type="matrix" values="0 0 0 0 0 0 0 0 0 0 0 0 0 0 0 0 0 0 127 0" result="hardAlpha"/>
<feOffset dy="4"/>
<feGaussianBlur stdDeviation="2"/>
<feComposite in2="hardAlpha" operator="out"/>
<feColorMatrix type="matrix" values="0 0 0 0 0 0 0 0 0 0 0 0 0 0 0 0 0 0 0.25 0"/>
<feBlend mode="normal" in2="BackgroundImageFix" result="effect1_dropShadow_4_4"/>
<feBlend mode="normal" in="SourceGraphic" in2="effect1_dropShadow_4_4" result="shape"/>
</filter>
<filter id="filter1_d_4_4" x="70" y="61" width="94" height="25" filterUnits="userSpaceOnUse" color-interpolation-filters="sRGB">
<feFlood flood-opacity="0" result="BackgroundImageFix"/>
<feColorMatrix in="SourceAlpha" type="matrix" values="0 0 0 0 0 0 0 0 0 0 0 0 0 0 0 0 0 0 127 0" result="hardAlpha"/>
<feOffset dy="4"/>
<feGaussianBlur stdDeviation="2"/>
<feComposite in2="hardAlpha" operator="out"/>
<feColorMatrix type="matrix" values="0 0 0 0 0 0 0 0 0 0 0 0 0 0 0 0 0 0 0.25 0"/>
<feBlend mode="normal" in2="BackgroundImageFix" result="effect1_dropShadow_4_4"/>
<feBlend mode="normal" in="SourceGraphic" in2="effect1_dropShadow_4_4" result="shape"/>
</filter>
<linearGradient id="paint0_linear_4_4" x1="117" y1="11" x2="117" y2="176" gradientUnits="userSpaceOnUse">
<stop stop-color="#64FFF6"/>
<stop offset="0.854167" stop-color="#647FFE"/>
<stop offset="1" stop-color="#646AFF"/>
</linearGradient>
</defs>
</svg>
